<?xml version="1.0" encoding="UTF-8" standalone="no"?>
<!DOCTYPE svg PUBLIC "-//W3C//DTD SVG 1.1//EN" "http://www.w3.org/Graphics/SVG/1.1/DTD/svg11.dtd">
<svg width="100%" height="100%" viewBox="0 0 479 185" version="1.1" xmlns="http://www.w3.org/2000/svg" xmlns:xlink="http://www.w3.org/1999/xlink" xml:space="preserve" xmlns:serif="http://www.serif.com/" style="fill-rule:evenodd;clip-rule:evenodd;">
    <g>
        <g transform="matrix(1,0,0,1,-2,1)">
            <path d="M192.044,46.055C192.044,46.055 190.569,51.007 192.254,53.43C193.94,55.853 217.114,55.221 217.114,55.221L205.845,45.001L192.044,46.055Z" style="fill:rgb(136,77,179);fill-rule:nonzero;stroke:rgb(51,51,51);stroke-width:4px;"/>
        </g>
        <g transform="matrix(1,0,0,1,-1,-1)">
            <path d="M252.014,126.337C252.014,126.337 229.858,120.225 223.746,104.945C217.635,89.666 282.573,75.15 282.573,75.15L276.461,106.473L252.014,126.337Z" style="fill:rgb(136,77,179);fill-rule:nonzero;stroke:rgb(51,51,51);stroke-width:4px;"/>
        </g>
        <path d="M255.967,27.304C255.967,27.304 255,27 238,36C225.986,42.36 256.891,43.961 256.891,43.961L255.967,27.304Z" style="fill:rgb(136,77,179);fill-rule:nonzero;stroke:rgb(51,51,51);stroke-width:4px;"/>
        <path d="M9.831,23.199C9.831,23.199 129.012,55.286 243.609,55.286C358.208,55.286 458.289,4.098 462.11,1.807C465.928,-0.485 475.096,40.77 462.875,49.939C450.65,59.107 381.892,98.835 246.667,98.835C111.441,98.835 13.652,77.443 6.775,69.803C-0.101,62.162 -0.101,31.603 9.831,23.199Z" style="fill:rgb(136,77,179);fill-rule:nonzero;stroke:rgb(26,26,26);stroke-width:4px;"/>
        <path d="M195.479,102.653C195.479,102.653 226.039,124.045 230.622,121.753C235.206,119.461 289.449,85.082 289.449,85.082L243.609,51.466L193.187,89.666L195.479,102.653Z" style="fill:rgb(136,77,179);fill-rule:nonzero;stroke:rgb(26,26,26);stroke-width:4px;"/>
        <g transform="matrix(1,0,0,1,7,-2)">
            <path d="M22.818,152.313C22.818,152.313 146.838,72.552 223.746,45.354C251.165,35.657 254.307,74.385 254.307,74.385C254.307,74.385 175.617,112.584 143.528,131.684C111.44,150.785 61.782,182.109 55.67,182.872C49.558,183.636 22.818,152.313 22.818,152.313Z" style="fill:rgb(136,77,179);fill-rule:nonzero;stroke:rgb(26,26,26);stroke-width:4px;"/>
        </g>
        <path d="M232.15,28.547C232.15,28.547 326.884,78.206 359.736,88.902C392.587,99.597 473.568,135.505 476.625,144.673C479.682,153.841 449.122,175.233 449.122,175.233C449.122,175.233 425.437,153.841 394.879,140.853C364.319,127.867 311.606,106.474 282.573,92.722C253.542,78.971 193.186,45.355 193.186,45.355L232.15,28.547Z" style="fill:rgb(136,77,179);fill-rule:nonzero;stroke:rgb(26,26,26);stroke-width:4px;"/>
        <path d="M255.834,27.783C255.834,27.783 253.542,120.224 251.25,124.808C248.957,129.392 294.033,111.822 294.796,106.473C295.561,101.124 301.673,56.05 297.089,51.466C292.505,46.882 260.417,25.491 255.834,27.783Z" style="fill:rgb(136,77,179);fill-rule:nonzero;stroke:rgb(26,26,26);stroke-width:4px;"/>
    </g>
</svg>
