<?xml version="1.0" standalone="no"?>
<!DOCTYPE svg PUBLIC "-//W3C//DTD SVG 20010904//EN"
 "http://www.w3.org/TR/2001/REC-SVG-20010904/DTD/svg10.dtd">
<svg version="1.0" xmlns="http://www.w3.org/2000/svg"
 width="180.000000pt" height="180.000000pt" viewBox="0 0 180.000000 180.000000"
 preserveAspectRatio="xMidYMid meet">

<g transform="translate(0.000000,180.000000) scale(0.100000,-0.100000)"
fill="#000000" stroke="none">
<path d="M739 1696 c-336 -71 -592 -351 -632 -693 -60 -512 378 -947 889 -884
478 58 791 515 679 991 -22 91 -95 233 -160 313 -97 118 -259 221 -412 263
-80 22 -280 27 -364 10z m315 -146 c380 -97 590 -474 471 -847 -61 -195 -215
-348 -420 -419 -71 -25 -94 -28 -205 -28 -111 0 -134 3 -205 28 -88 30 -124
50 -203 109 l-52 39 0 59 0 59 85 0 85 0 0 45 0 45 88 0 c60 0 82 3 72 10 -8
5 -86 10 -172 10 l-158 0 0 48 c0 50 -26 118 -53 141 -21 17 -22 35 -1 52 33
27 54 87 54 154 0 36 2 65 4 65 2 0 61 -31 130 -70 70 -38 129 -70 132 -70 3
0 3 28 -1 63 -14 137 50 356 140 480 34 45 37 47 83 47 27 0 84 -9 126 -20z"/>
<path d="M846 1028 c-58 -16 -120 -83 -135 -145 -30 -125 63 -243 190 -243 61
0 96 13 137 53 48 46 62 78 62 145 0 132 -125 226 -254 190z m14 -74 c0 -8 7
-14 16 -14 10 0 14 -6 10 -15 -4 -11 2 -15 23 -15 25 0 27 3 23 30 -4 25 -1
30 17 30 17 0 21 -6 21 -35 0 -30 3 -35 24 -35 13 0 26 -7 30 -15 4 -11 -2
-15 -25 -15 -29 0 -29 0 -14 -27 8 -16 25 -40 36 -55 27 -32 18 -49 -21 -41
-27 5 -30 3 -30 -21 0 -21 -4 -27 -17 -24 -10 2 -19 12 -22 23 -3 19 -18 35
-33 35 -3 0 -11 -13 -17 -30 -5 -17 -17 -30 -26 -30 -13 0 -15 7 -10 33 l6 32
-23 -27 c-13 -16 -29 -28 -36 -28 -19 0 -14 25 9 46 l21 19 -28 5 c-33 6 -45
30 -15 30 19 0 21 6 21 65 0 36 4 65 9 65 5 0 12 9 16 19 7 22 35 18 35 -5z"/>
<path d="M828 903 c7 -3 16 -2 19 1 4 3 -2 6 -13 5 -11 0 -14 -3 -6 -6z"/>
<path d="M830 860 c0 -5 5 -10 10 -10 6 0 10 5 10 10 0 6 -4 10 -10 10 -5 0
-10 -4 -10 -10z"/>
<path d="M880 861 c0 -13 26 -32 33 -24 14 13 6 33 -13 33 -11 0 -20 -4 -20
-9z"/>
<path d="M885 809 c-4 -6 -5 -12 -2 -15 2 -3 7 2 10 11 7 17 1 20 -8 4z"/>
<path d="M921 794 c0 -11 3 -14 6 -6 3 7 2 16 -1 19 -3 4 -6 -2 -5 -13z"/>
<path d="M1127 926 c-3 -8 0 -22 7 -32 18 -24 46 -11 46 21 0 20 -5 25 -24 25
-13 0 -26 -6 -29 -14z"/>
<path d="M1207 933 c-13 -12 -7 -41 10 -47 21 -8 48 17 40 38 -6 16 -38 22
-50 9z"/>
<path d="M1274 925 c-4 -9 0 -23 8 -31 20 -20 50 -7 46 20 -4 26 -45 35 -54
11z"/>
<path d="M1357 933 c-13 -12 -7 -41 10 -47 21 -8 48 17 40 38 -6 16 -38 22
-50 9z"/>
<path d="M1424 925 c-4 -9 0 -23 8 -31 20 -20 50 -7 46 20 -4 26 -45 35 -54
11z"/>
<path d="M1204 855 c-4 -8 -3 -22 0 -31 8 -21 50 -14 54 10 6 31 -43 50 -54
21z"/>
<path d="M1280 856 c-18 -22 -5 -48 22 -44 17 2 23 10 23 28 0 29 -26 38 -45
16z"/>
<path d="M1354 855 c-9 -23 3 -45 26 -45 25 0 37 25 20 45 -16 19 -39 19 -46
0z"/>
<path d="M1430 856 c-18 -22 -5 -48 22 -44 17 2 23 10 23 28 0 29 -26 38 -45
16z"/>
<path d="M747 416 c-4 -9 5 -28 18 -44 24 -29 24 -52 -1 -31 -8 6 -14 7 -18 0
-11 -17 33 -34 50 -20 19 16 18 33 -6 54 -23 20 -26 37 -7 33 7 -2 14 2 15 7
4 17 -45 18 -51 1z"/>
<path d="M820 420 c0 -5 5 -10 10 -10 6 0 10 -20 10 -45 0 -25 5 -45 10 -45 6
0 10 20 10 45 0 25 5 45 10 45 6 0 10 5 10 10 0 6 -13 10 -30 10 -16 0 -30 -4
-30 -10z"/>
<path d="M1000 375 c0 -42 3 -55 15 -55 9 0 15 9 15 25 0 16 6 25 15 25 8 0
15 5 15 10 0 6 -7 10 -15 10 -8 0 -15 5 -15 10 0 6 7 10 15 10 8 0 15 5 15 10
0 6 -13 10 -30 10 -30 0 -30 -1 -30 -55z"/>
<path d="M900 385 c-14 -17 -6 -61 13 -68 7 -3 25 -3 40 0 24 5 27 10 27 44 0
38 -1 39 -34 39 -18 0 -39 -7 -46 -15z m57 -21 c8 -22 -18 -37 -36 -20 -7 8
-10 19 -7 25 10 16 36 13 43 -5z"/>
</g>
</svg>
